<svg width="31" height="32" viewBox="0 0 31 32" fill="none" xmlns="http://www.w3.org/2000/svg">
<path d="M21.106 3.08325C25.4847 3.08325 28.4168 6.15742 28.4168 10.7299V21.2841C28.4168 25.8424 25.4847 28.9166 21.106 28.9166H9.90722C5.52847 28.9166 2.58347 25.8424 2.58347 21.2841V10.7299C2.58347 6.15742 5.52847 3.08325 9.90722 3.08325H21.106ZM20.8993 12.1249C20.4601 11.6858 19.7368 11.6858 19.2976 12.1249L13.963 17.4595L11.7026 15.1991C11.2635 14.7599 10.5401 14.7599 10.101 15.1991C9.6618 15.6383 9.6618 16.3487 10.101 16.8008L13.1751 19.862C13.3947 20.0816 13.6789 20.1849 13.963 20.1849C14.2601 20.1849 14.5443 20.0816 14.7639 19.862L20.8993 13.7266C21.3385 13.2874 21.3385 12.577 20.8993 12.1249Z" fill="#E8375B"/>
</svg>
