<svg width="38" height="39" viewBox="0 0 38 39" fill="none" xmlns="http://www.w3.org/2000/svg">
<path d="M12.9276 24.3455L24.2822 16.9383L23.5372 23.3907C23.52 23.5402 23.5325 23.6918 23.5738 23.8367C23.6152 23.9815 23.6846 24.1169 23.7782 24.235C23.9671 24.4737 24.2428 24.6276 24.5446 24.663C24.8464 24.6984 25.1496 24.6123 25.3875 24.4238C25.6254 24.2352 25.7785 23.9596 25.8131 23.6576L26.8428 14.7753C26.8451 14.7084 26.8425 14.6415 26.835 14.5751C26.8037 14.5271 26.8328 14.467 26.8206 14.4066C26.7922 14.2682 26.7385 14.1362 26.6622 14.0173C26.5841 13.8995 26.4849 13.7972 26.3697 13.7154C26.3384 13.6674 26.2718 13.6699 26.2213 13.6343C26.1635 13.6007 26.1033 13.5714 26.0412 13.5466L17.497 10.9098C17.3363 10.8602 17.1668 10.8466 17.0004 10.87C16.834 10.8933 16.6749 10.9532 16.5344 11.0451C16.3104 11.1906 16.1446 11.4102 16.0657 11.6656C16.0213 11.8095 16.0058 11.9607 16.0199 12.1107C16.034 12.2607 16.0775 12.4065 16.148 12.5398C16.2185 12.6731 16.3145 12.7912 16.4305 12.8874C16.5465 12.9835 16.6803 13.0559 16.8242 13.1003L23.0298 15.0184L11.6752 22.4256C11.4213 22.5913 11.2438 22.8513 11.1816 23.1484C11.1195 23.4456 11.1779 23.7555 11.344 24.0101C11.5101 24.2647 11.7703 24.4431 12.0672 24.506C12.3642 24.5688 12.6737 24.5111 12.9276 24.3455Z" fill="#231F20"/>
</svg>
